<svg width="241" height="57" viewBox="0 0 241 57" fill="none" xmlns="http://www.w3.org/2000/svg">
<path fill-rule="evenodd" clip-rule="evenodd" d="M161.545 43.9439C163.625 44.9679 166.153 45.4799 169.129 45.4799C171.305 45.4799 173.257 45.1919 174.985 44.6159C176.713 44.0399 178.185 43.2559 179.401 42.2639C180.617 41.2399 181.561 40.0559 182.233 38.7119C182.905 37.3679 183.257 35.9119 183.289 34.3439C183.321 34.0559 183.225 33.8159 183.001 33.6239C182.809 33.4319 182.569 33.3359 182.281 33.3359H177.721C177.369 33.3359 177.081 33.4159 176.857 33.5759C176.633 33.7359 176.473 34.0399 176.377 34.4879C175.865 36.5679 174.985 38.0079 173.737 38.8079C172.489 39.5759 170.937 39.9599 169.081 39.9599C166.937 39.9599 165.225 39.3679 163.945 38.1839C162.665 36.9679 161.977 34.9839 161.881 32.2319C161.876 32.0744 161.871 31.9171 161.866 31.7599H155.002C155.006 32.0003 155.012 32.2377 155.017 32.4719C155.145 35.1919 155.753 37.5279 156.841 39.4799C157.929 41.3999 159.497 42.8879 161.545 43.9439ZM155 24.7599C155.005 24.48 155.011 24.2027 155.017 23.9279C155.145 21.2399 155.753 18.9199 156.841 16.9679C157.961 15.0159 159.545 13.5279 161.593 12.5039C163.673 11.4479 166.185 10.9199 169.129 10.9199C171.305 10.9199 173.257 11.2079 174.985 11.7839C176.713 12.3599 178.185 13.1599 179.401 14.1839C180.617 15.1759 181.561 16.3439 182.233 17.6879C182.905 19.0319 183.257 20.4879 183.289 22.0559C183.321 22.3439 183.225 22.5839 183.001 22.7759C182.809 22.9679 182.569 23.0639 182.281 23.0639H177.721C177.369 23.0639 177.081 22.9839 176.857 22.8239C176.633 22.6319 176.473 22.3279 176.377 21.9119C175.865 19.7999 174.985 18.3599 173.737 17.5919C172.489 16.8239 170.937 16.4399 169.081 16.4399C166.937 16.4399 165.225 17.0479 163.945 18.2639C162.665 19.4479 161.977 21.4159 161.881 24.1679C161.874 24.3649 161.867 24.5622 161.861 24.7599H155ZM197.69 44.6159C197.978 44.8719 198.378 44.9999 198.89 44.9999H204.17C204.682 44.9999 205.082 44.8719 205.37 44.6159C205.658 44.3599 205.866 44.0399 205.994 43.6559L209.959 31.7599H203.297L201.53 37.1759L199.753 31.7599H193.101L197.066 43.6559C197.194 44.0399 197.402 44.3599 197.69 44.6159ZM190.767 24.7599H197.456L193.418 12.4559C193.354 12.2319 193.194 12.0079 192.938 11.7839C192.714 11.5279 192.378 11.3999 191.93 11.3999H187.706C187.418 11.3999 187.178 11.4959 186.986 11.6879C186.794 11.8799 186.698 12.1199 186.698 12.4079C186.698 12.5359 186.73 12.6799 186.794 12.8399L190.767 24.7599ZM205.58 24.7599H212.293L216.266 12.8399C216.33 12.6799 216.362 12.5359 216.362 12.4079C216.362 12.1199 216.25 11.8799 216.026 11.6879C215.834 11.4959 215.61 11.3999 215.354 11.3999H211.13C210.682 11.3999 210.33 11.5279 210.074 11.7839C209.85 12.0079 209.69 12.2319 209.594 12.4559L205.58 24.7599Z" fill="#685D41"/>
<path fill-rule="evenodd" clip-rule="evenodd" d="M0.960119 44.7119C1.18412 44.9039 1.42412 44.9999 1.68012 44.9999H5.85612C6.30412 44.9999 6.62412 44.9039 6.81612 44.7119C7.04012 44.4879 7.18412 44.2799 7.24812 44.0879L9.20825 38.9999H2.47193L0.768119 43.5599C0.704119 43.7199 0.672119 43.8639 0.672119 43.9919C0.672119 44.2799 0.768119 44.5199 0.960119 44.7119ZM5.08744 31.9999H11.4445L16.6081 17.8799L21.8174 31.9999H28.1768L20.9281 12.5999C20.8001 12.2799 20.6081 12.0079 20.3521 11.7839C20.0961 11.5279 19.7281 11.3999 19.2481 11.3999H14.0161C13.5361 11.3999 13.1521 11.5279 12.8641 11.7839C12.6081 12.0079 12.4321 12.2799 12.3361 12.5999L5.08744 31.9999ZM30.7923 38.9999H24.056L26.0161 44.0879C26.0801 44.2799 26.2081 44.4879 26.4001 44.7119C26.6241 44.9039 26.9601 44.9999 27.4081 44.9999H31.5841C31.8401 44.9999 32.0641 44.9039 32.2561 44.7119C32.4481 44.5199 32.5441 44.2799 32.5441 43.9919C32.5441 43.8639 32.5281 43.7199 32.4961 43.5599L30.7923 38.9999ZM40.1614 45.1279C40.3534 45.2346 40.5774 45.2879 40.8334 45.2879C41.0894 45.2879 41.324 45.2239 41.5374 45.0959C41.7507 44.9892 41.9 44.8292 41.9854 44.6159L44.0799 38.1999H41.8813L40.9934 41.0319L39.9819 38.1999H37.3316L39.7454 44.6159C39.852 44.8719 39.9907 45.0426 40.1614 45.1279ZM36.5039 35.9999H39.1962L37.1534 30.2799C37.0894 30.1092 36.972 29.9812 36.8014 29.8959C36.652 29.8106 36.4814 29.7679 36.2894 29.7679C36.0547 29.7679 35.8094 29.8212 35.5534 29.9279C35.2974 30.0132 35.0734 30.1412 34.8814 30.3119C34.7107 30.4826 34.6254 30.6852 34.6254 30.9199C34.6254 30.9626 34.636 31.0372 34.6574 31.1439C34.7 31.2292 34.7427 31.3252 34.7854 31.4319L36.5039 35.9999ZM42.5711 35.9999H44.7982L45.0254 35.3039L45.255 35.9999H47.4349L46.0174 31.3359C45.9534 31.1012 45.8254 30.9412 45.6334 30.8559C45.4627 30.7492 45.26 30.6959 45.0254 30.6959C44.7907 30.6959 44.588 30.7492 44.4174 30.8559C44.2467 30.9412 44.1187 31.1012 44.0334 31.3359L42.5711 35.9999ZM48.1035 38.1999L48.9934 41.1279L50.0471 38.1999H52.7213L50.2734 44.7119C50.188 44.9252 50.0494 45.0746 49.8574 45.1599C49.6654 45.2452 49.452 45.2879 49.2174 45.2879C48.94 45.2879 48.7054 45.2346 48.5134 45.1279C48.3427 45.0426 48.2147 44.9039 48.1294 44.7119L45.9809 38.1999H48.1035ZM53.5482 35.9999H50.8388L52.8974 30.2799C53.004 29.9386 53.2814 29.7679 53.7294 29.7679C53.964 29.7679 54.2094 29.8212 54.4654 29.9279C54.7214 30.0132 54.9347 30.1412 55.1054 30.3119C55.2974 30.4826 55.3934 30.6852 55.3934 30.9199C55.3934 30.9839 55.372 31.0692 55.3294 31.1759C55.308 31.2826 55.2867 31.3679 55.2654 31.4319L53.5482 35.9999ZM57.0846 38.1999V39.0479C57.0846 40.2852 57.394 41.3732 58.0126 42.3119C58.6313 43.2292 59.474 43.9546 60.5406 44.4879C61.6073 44.9999 62.834 45.2559 64.2206 45.2559C65.2446 45.2559 66.13 45.1279 66.8766 44.8719C67.6446 44.5946 68.2313 44.2852 68.6366 43.9439C69.042 43.5812 69.2446 43.2612 69.2446 42.9839C69.2446 42.8346 69.202 42.6639 69.1166 42.4719C69.0313 42.2799 68.9033 42.1199 68.7326 41.9919C68.5833 41.8426 68.3913 41.7679 68.1566 41.7679C67.922 41.7679 67.6553 41.8746 67.3566 42.0879C67.058 42.2799 66.674 42.4826 66.2046 42.6959C65.7353 42.9092 65.1059 43.0159 64.3166 43.0159C62.9726 43.0159 61.874 42.6746 61.0206 41.9919C60.1673 41.2879 59.7406 40.3386 59.7406 39.1439V38.1999H57.0846ZM66.9001 38.183C67.3261 38.1763 67.7343 38.134 68.1246 38.0559C68.5513 37.9706 68.9033 37.7466 69.1806 37.3839C69.458 36.9999 69.5966 36.3812 69.5966 35.5279C69.5966 34.3759 69.3086 33.3626 68.7326 32.4879C68.178 31.6132 67.4313 30.9199 66.4926 30.4079C65.5753 29.8959 64.562 29.6399 63.4526 29.6399C62.3006 29.6399 61.2446 29.9172 60.2846 30.4719C59.3246 31.0266 58.546 31.7626 57.9486 32.6799C57.3726 33.5972 57.0846 34.5999 57.0846 35.6879V35.9999H59.7406V35.2399C59.7406 34.5999 59.9113 34.0132 60.2526 33.4799C60.594 32.9466 61.042 32.5306 61.5966 32.2319C62.1513 31.9119 62.7593 31.7519 63.4206 31.7519C64.1246 31.7519 64.754 31.9226 65.3086 32.2639C65.8633 32.6052 66.29 33.0532 66.5886 33.6079C66.9086 34.1412 67.0686 34.7279 67.0686 35.3679C67.0686 35.6779 67.0125 35.9131 66.9001 36.0734V38.183ZM82.1676 44.8719C82.957 45.1279 83.8636 45.2559 84.8876 45.2559C86.5943 45.2559 87.917 44.8719 88.8556 44.1039C89.7943 43.3146 90.2636 42.2692 90.2636 40.9679C90.2636 40.0079 90.0716 39.2399 89.6876 38.6639C89.5775 38.4987 89.4586 38.344 89.3309 38.1999H84.0915C84.6931 38.3776 85.2678 38.5643 85.8156 38.7599C86.4129 38.9519 86.9036 39.2292 87.2876 39.5919C87.6716 39.9332 87.8636 40.4346 87.8636 41.0959C87.8636 41.6079 87.6396 42.0772 87.1916 42.5039C86.7436 42.9092 85.9543 43.1119 84.8236 43.1119C83.8636 43.1119 83.1276 42.9839 82.6156 42.7279C82.1036 42.4719 81.6983 42.2266 81.3996 41.9919C81.101 41.7359 80.8236 41.6079 80.5676 41.6079C80.3969 41.6079 80.237 41.6826 80.0876 41.8319C79.9596 41.9599 79.853 42.1199 79.7676 42.3119C79.6823 42.4826 79.6396 42.6532 79.6396 42.8239C79.6396 43.1866 79.8636 43.5492 80.3116 43.9119C80.7596 44.2746 81.3783 44.5946 82.1676 44.8719ZM80.4271 35.9999H84.3829C83.7967 35.8091 83.3143 35.5664 82.9356 35.2719C82.573 34.9732 82.3916 34.5572 82.3916 34.0239C82.3916 33.6826 82.4876 33.3519 82.6796 33.0319C82.8716 32.6906 83.181 32.4026 83.6076 32.1679C84.0343 31.9119 84.5996 31.7839 85.3036 31.7839C85.9223 31.7839 86.445 31.8586 86.8716 32.0079C87.3196 32.1572 87.693 32.3172 87.9916 32.4879C88.3116 32.6372 88.557 32.7119 88.7276 32.7119C88.9623 32.7119 89.1543 32.6266 89.3036 32.4559C89.4529 32.2852 89.5703 32.0932 89.6556 31.8799C89.741 31.6666 89.7836 31.4959 89.7836 31.3679C89.7836 31.0692 89.5596 30.7919 89.1116 30.5359C88.685 30.2586 88.1196 30.0452 87.4156 29.8959C86.7329 29.7252 86.0183 29.6399 85.2716 29.6399C83.9916 29.6399 82.9676 29.8746 82.1996 30.3439C81.4316 30.7919 80.877 31.3572 80.5356 32.0399C80.1943 32.7226 80.0236 33.4159 80.0236 34.1199C80.0236 34.8731 80.1581 35.4998 80.4271 35.9999ZM92.5846 39.0479V38.1999H95.2406V39.0479C95.2406 39.6879 95.4006 40.3066 95.7206 40.9039C96.0406 41.4799 96.478 41.9492 97.0326 42.3119C97.5873 42.6746 98.206 42.8559 98.8886 42.8559C99.5713 42.8559 100.179 42.6746 100.713 42.3119C101.267 41.9492 101.715 41.4799 102.057 40.9039C102.398 40.3066 102.569 39.6879 102.569 39.0479V38.1999H105.225V39.0479C105.225 40.1146 104.926 41.1279 104.329 42.0879C103.753 43.0266 102.985 43.7946 102.025 44.3919C101.065 44.9679 100.019 45.2559 98.8886 45.2559C97.7579 45.2559 96.7126 44.9679 95.7526 44.3919C94.7926 43.7946 94.0246 43.0266 93.4486 42.0879C92.8726 41.1492 92.5846 40.1359 92.5846 39.0479ZM92.5846 35.9999H95.2406V35.7839C95.2406 35.1652 95.4006 34.5679 95.7206 33.9919C96.0406 33.4159 96.478 32.9466 97.0326 32.5839C97.5873 32.2212 98.206 32.0399 98.8886 32.0399C99.5713 32.0399 100.19 32.2212 100.745 32.5839C101.299 32.9466 101.737 33.4159 102.057 33.9919C102.398 34.5679 102.569 35.1652 102.569 35.7839V35.9999H105.225V35.7839C105.225 34.6532 104.926 33.6292 104.329 32.7119C103.753 31.7946 102.985 31.0586 102.025 30.5039C101.065 29.9279 100.019 29.6399 98.8886 29.6399C97.7366 29.6399 96.6806 29.9279 95.7206 30.5039C94.7606 31.0799 93.9926 31.8372 93.4166 32.7759C92.862 33.6932 92.5846 34.6959 92.5846 35.7839V35.9999ZM108.411 44.0399V38.1999H111.067V44.0399C111.067 44.2746 110.928 44.4986 110.651 44.7119C110.395 44.9039 110.085 44.9999 109.723 44.9999C109.339 44.9999 109.019 44.9039 108.763 44.7119C108.528 44.4986 108.411 44.2746 108.411 44.0399ZM108.411 35.9999H111.067V35.7839C111.067 34.9732 111.227 34.3012 111.547 33.7679C111.888 33.2132 112.315 32.7866 112.827 32.4879C113.36 32.1892 113.915 32.0399 114.491 32.0399C115.088 32.0399 115.632 32.1999 116.123 32.5199C116.635 32.8186 117.04 33.2452 117.339 33.7999C117.659 34.3546 117.819 34.9946 117.819 35.7199V35.9999H120.475V35.6879C120.475 34.9199 120.645 34.2692 120.987 33.7359C121.328 33.2026 121.755 32.7866 122.267 32.4879C122.779 32.1892 123.323 32.0399 123.899 32.0399C124.432 32.0399 124.955 32.1892 125.467 32.4879C126 32.7652 126.427 33.1812 126.747 33.7359C127.088 34.2906 127.259 34.9732 127.259 35.7839V35.9999H129.915V35.7839C129.915 34.4826 129.648 33.3732 129.115 32.4559C128.603 31.5386 127.92 30.8452 127.067 30.3759C126.235 29.8852 125.349 29.6399 124.411 29.6399C123.493 29.6399 122.597 29.9066 121.723 30.4399C120.848 30.9519 120.133 31.7519 119.579 32.8399C119.216 31.9012 118.651 31.1332 117.883 30.5359C117.115 29.9386 116.219 29.6399 115.195 29.6399C114.128 29.6399 113.243 29.8959 112.539 30.4079C111.835 30.8986 111.301 31.4532 110.939 32.0719V30.7599C110.939 30.4826 110.821 30.2586 110.587 30.0879C110.352 29.9172 110.064 29.8319 109.723 29.8319C109.339 29.8319 109.019 29.9172 108.763 30.0879C108.528 30.2586 108.411 30.4826 108.411 30.7599V35.9999ZM117.819 44.0719V38.1999H120.475V44.0719C120.475 44.3919 120.336 44.6266 120.059 44.7759C119.781 44.9252 119.472 44.9999 119.131 44.9999C118.832 44.9999 118.533 44.9252 118.235 44.7759C117.957 44.6266 117.819 44.3919 117.819 44.0719ZM127.259 44.0399V38.1999H129.915V44.0399C129.915 44.2746 129.776 44.4986 129.499 44.7119C129.243 44.9039 128.933 44.9999 128.571 44.9999C128.208 44.9999 127.899 44.9039 127.643 44.7119C127.387 44.4986 127.259 44.2746 127.259 44.0399ZM132.96 39.0479V38.1999H135.616V39.1439C135.616 40.3386 136.042 41.2879 136.896 41.9919C137.749 42.6746 138.848 43.0159 140.192 43.0159C140.981 43.0159 141.61 42.9092 142.08 42.6959C142.549 42.4826 142.933 42.2799 143.232 42.0879C143.53 41.8746 143.797 41.7679 144.032 41.7679C144.266 41.7679 144.458 41.8426 144.608 41.9919C144.778 42.1199 144.906 42.2799 144.992 42.4719C145.077 42.6639 145.12 42.8346 145.12 42.9839C145.12 43.2612 144.917 43.5812 144.512 43.9439C144.106 44.2852 143.52 44.5946 142.752 44.8719C142.005 45.1279 141.12 45.2559 140.096 45.2559C138.709 45.2559 137.482 44.9999 136.416 44.4879C135.349 43.9546 134.506 43.2292 133.888 42.3119C133.269 41.3732 132.96 40.2852 132.96 39.0479ZM144 38.0559C143.617 38.1324 143.217 38.1747 142.8 38.1825V36.0349C142.896 35.8764 142.944 35.654 142.944 35.3679C142.944 34.7279 142.784 34.1412 142.464 33.6079C142.165 33.0532 141.738 32.6052 141.184 32.2639C140.629 31.9226 140 31.7519 139.296 31.7519C138.634 31.7519 138.026 31.9119 137.472 32.2319C136.917 32.5306 136.469 32.9466 136.128 33.4799C135.786 34.0132 135.616 34.5999 135.616 35.2399V35.9999H132.96V35.6879C132.96 34.5999 133.248 33.5972 133.824 32.6799C134.421 31.7626 135.2 31.0266 136.16 30.4719C137.12 29.9172 138.176 29.6399 139.328 29.6399C140.437 29.6399 141.45 29.8959 142.368 30.4079C143.306 30.9199 144.053 31.6132 144.608 32.4879C145.184 33.3626 145.472 34.3759 145.472 35.5279C145.472 36.3812 145.333 36.9999 145.056 37.3839C144.778 37.7466 144.426 37.9706 144 38.0559Z" fill="#BAA673"/>
</svg>
