<svg width="713" height="130" viewBox="0 0 713 130" fill="none" xmlns="http://www.w3.org/2000/svg">
<path fill-rule="evenodd" clip-rule="evenodd" d="M529.67 117.072C535.91 120.144 543.494 121.68 552.422 121.68C558.95 121.68 564.806 120.816 569.99 119.088C575.174 117.36 579.59 115.008 583.238 112.032C586.886 108.96 589.718 105.408 591.734 101.376C593.75 97.344 594.806 92.976 594.902 88.272C594.998 87.408 594.71 86.688 594.038 86.112C593.462 85.536 592.742 85.248 591.878 85.248H578.198C577.142 85.248 576.278 85.488 575.606 85.968C574.934 86.448 574.454 87.36 574.166 88.704C572.63 94.944 569.99 99.264 566.246 101.664C562.502 103.968 557.846 105.12 552.278 105.12C545.846 105.12 540.71 103.344 536.87 99.792C533.03 96.144 530.966 90.192 530.678 81.936C530.635 80.6997 530.598 79.4677 530.568 78.24H510C510.022 79.7502 510.051 81.2222 510.086 82.656C510.47 90.816 512.294 97.824 515.558 103.68C518.822 109.44 523.526 113.904 529.67 117.072ZM510.005 61.24C510.027 59.8131 510.054 58.4078 510.086 57.024C510.47 48.96 512.294 42 515.558 36.144C518.918 30.288 523.67 25.824 529.814 22.752C536.054 19.584 543.59 18 552.422 18C558.95 18 564.806 18.864 569.99 20.592C575.174 22.32 579.59 24.72 583.238 27.792C586.886 30.768 589.718 34.272 591.734 38.304C593.75 42.336 594.806 46.704 594.902 51.408C594.998 52.272 594.71 52.992 594.038 53.568C593.462 54.144 592.742 54.432 591.878 54.432H578.198C577.142 54.432 576.278 54.192 575.606 53.712C574.934 53.136 574.454 52.224 574.166 50.976C572.63 44.64 569.99 40.32 566.246 38.016C562.502 35.712 557.846 34.56 552.278 34.56C545.846 34.56 540.71 36.384 536.87 40.032C533.03 43.584 530.966 49.488 530.678 57.744C530.635 58.9052 530.599 60.0705 530.569 61.24H510.005ZM638.104 119.088C638.968 119.856 640.168 120.24 641.704 120.24H657.544C659.08 120.24 660.28 119.856 661.144 119.088C662.008 118.32 662.632 117.36 663.016 116.208L675.672 78.24H655.668L649.624 96.768L643.544 78.24H623.576L636.232 116.208C636.616 117.36 637.24 118.32 638.104 119.088ZM617.909 61.24H637.965L625.288 22.608C625.096 21.936 624.616 21.264 623.848 20.592C623.176 19.824 622.168 19.44 620.824 19.44H608.152C607.288 19.44 606.568 19.728 605.992 20.304C605.416 20.88 605.128 21.6 605.128 22.464C605.128 22.848 605.224 23.28 605.416 23.76L617.909 61.24ZM661.214 61.24H681.339L693.832 23.76C694.024 23.28 694.12 22.848 694.12 22.464C694.12 21.6 693.784 20.88 693.112 20.304C692.536 19.728 691.864 19.44 691.096 19.44H678.424C677.08 19.44 676.024 19.824 675.256 20.592C674.584 21.264 674.104 21.936 673.816 22.608L661.214 61.24Z" fill="#685D41"/>
<path fill-rule="evenodd" clip-rule="evenodd" d="M24.0611 111.136C24.7331 111.712 25.4531 112 26.2211 112H38.7491C40.0931 112 41.0531 111.712 41.6291 111.136C42.3011 110.464 42.7331 109.84 42.9251 109.264L49.576 92.0002H29.3438L23.4851 107.68C23.2931 108.16 23.1971 108.592 23.1971 108.976C23.1971 109.84 23.4851 110.56 24.0611 111.136ZM35.6957 75.0002H54.7828L71.0051 30.6402L87.3709 75.0002H106.458L83.9651 14.8002C83.5811 13.8402 83.0051 13.0242 82.2371 12.3522C81.4691 11.5842 80.3651 11.2002 78.9251 11.2002H63.2291C61.7891 11.2002 60.6371 11.5842 59.7731 12.3522C59.0051 13.0242 58.4771 13.8402 58.1891 14.8002L35.6957 75.0002ZM112.81 92.0002H92.5782L99.2291 109.264C99.4211 109.84 99.8051 110.464 100.381 111.136C101.053 111.712 102.061 112 103.405 112H115.933C116.701 112 117.373 111.712 117.949 111.136C118.525 110.56 118.813 109.84 118.813 108.976C118.813 108.592 118.765 108.16 118.669 107.68L112.81 92.0002ZM143.145 112.416C143.769 112.763 144.497 112.936 145.329 112.936C146.161 112.936 146.924 112.728 147.617 112.312C148.31 111.966 148.795 111.446 149.073 110.752L155.848 90.0002H148.703L145.849 99.1042L142.597 90.0002H133.986L141.793 110.752C142.139 111.584 142.59 112.139 143.145 112.416ZM158.953 80.4882L159.782 83.0002H166.86L162.177 67.5922C161.969 66.8295 161.553 66.3095 160.929 66.0322C160.374 65.6855 159.715 65.5122 158.953 65.5122C158.19 65.5122 157.531 65.6855 156.977 66.0322C156.422 66.3095 156.006 66.8295 155.729 67.5922L150.898 83.0002H158.133L158.953 80.4882ZM169.041 111.064L162.091 90.0002H168.987L171.849 99.4162L175.237 90.0002H183.927L176.009 111.064C175.731 111.758 175.281 112.243 174.657 112.52C174.033 112.798 173.339 112.936 172.577 112.936C171.675 112.936 170.913 112.763 170.289 112.416C169.734 112.139 169.318 111.688 169.041 111.064ZM186.558 83.0002H177.757L184.537 64.1602C184.883 63.0509 185.785 62.4962 187.241 62.4962C188.003 62.4962 188.801 62.6695 189.633 63.0162C190.465 63.2935 191.158 63.7095 191.713 64.2642C192.337 64.8189 192.649 65.4775 192.649 66.2402C192.649 66.4482 192.579 66.7255 192.441 67.0722C192.372 67.4189 192.302 67.6962 192.233 67.9042L186.558 83.0002ZM198.145 92.6562V90.0002H206.777V92.9682C206.777 96.8509 208.164 99.9362 210.937 102.224C213.711 104.443 217.281 105.552 221.649 105.552C224.215 105.552 226.26 105.206 227.785 104.512C229.311 103.819 230.559 103.16 231.529 102.536C232.5 101.843 233.367 101.496 234.129 101.496C234.892 101.496 235.516 101.739 236.001 102.224C236.556 102.64 236.972 103.16 237.249 103.784C237.527 104.408 237.665 104.963 237.665 105.448C237.665 106.35 237.007 107.39 235.689 108.568C234.372 109.678 232.465 110.683 229.969 111.584C227.543 112.416 224.665 112.832 221.337 112.832C216.831 112.832 212.844 112 209.377 110.336C205.911 108.603 203.172 106.246 201.161 103.264C199.151 100.214 198.145 96.6775 198.145 92.6562ZM234.025 89.4322C232.743 89.6887 231.401 89.8266 230 89.8458V83.0517C230.396 82.5303 230.593 81.7451 230.593 80.6962C230.593 78.6162 230.073 76.7095 229.033 74.9762C228.063 73.1735 226.676 71.7175 224.873 70.6082C223.071 69.4989 221.025 68.9442 218.737 68.9442C216.588 68.9442 214.612 69.4642 212.809 70.5042C211.007 71.4749 209.551 72.8269 208.441 74.5602C207.332 76.2935 206.777 78.2002 206.777 80.2802V83.0002H198.145V81.7362C198.145 78.2002 199.081 74.9415 200.953 71.9602C202.895 68.9789 205.425 66.5869 208.545 64.7842C211.665 62.9815 215.097 62.0802 218.841 62.0802C222.447 62.0802 225.74 62.9122 228.721 64.5762C231.772 66.2402 234.199 68.4935 236.001 71.3362C237.873 74.1789 238.809 77.4722 238.809 81.2162C238.809 83.9895 238.359 86.0002 237.457 87.2482C236.556 88.4269 235.412 89.1549 234.025 89.4322ZM133.369 64.1602L140.097 83.0002H131.352L125.673 67.9042C125.534 67.5575 125.395 67.2455 125.257 66.9682C125.187 66.6215 125.153 66.3789 125.153 66.2402C125.153 65.4775 125.43 64.8189 125.985 64.2642C126.609 63.7095 127.337 63.2935 128.169 63.0162C129.001 62.6695 129.798 62.4962 130.561 62.4962C131.185 62.4962 131.739 62.6349 132.225 62.9122C132.779 63.1895 133.161 63.6055 133.369 64.1602ZM279.665 111.584C282.23 112.416 285.177 112.832 288.505 112.832C294.052 112.832 298.35 111.584 301.401 109.088C304.452 106.523 305.977 103.126 305.977 98.8962C305.977 95.7762 305.353 93.2802 304.105 91.4082C303.773 90.9093 303.415 90.44 303.034 90.0002H286.255C288.088 90.5476 289.843 91.121 291.521 91.7202C293.462 92.3442 295.057 93.2455 296.305 94.4242C297.553 95.5335 298.177 97.1629 298.177 99.3122C298.177 100.976 297.449 102.502 295.993 103.888C294.537 105.206 291.972 105.864 288.297 105.864C285.177 105.864 282.785 105.448 281.121 104.616C279.457 103.784 278.14 102.987 277.169 102.224C276.198 101.392 275.297 100.976 274.465 100.976C273.91 100.976 273.39 101.219 272.905 101.704C272.489 102.12 272.142 102.64 271.865 103.264C271.588 103.819 271.449 104.374 271.449 104.928C271.449 106.107 272.177 107.286 273.633 108.464C275.089 109.643 277.1 110.683 279.665 111.584ZM287.754 83.0002H274.148C273.181 81.3354 272.697 79.2154 272.697 76.6402C272.697 74.3522 273.252 72.0989 274.361 69.8802C275.47 67.6615 277.273 65.8242 279.769 64.3682C282.265 62.8429 285.593 62.0802 289.753 62.0802C292.18 62.0802 294.502 62.3575 296.721 62.9122C299.009 63.3975 300.846 64.0909 302.233 64.9922C303.689 65.8242 304.417 66.7255 304.417 67.6962C304.417 68.1122 304.278 68.6669 304.001 69.3602C303.724 70.0535 303.342 70.6775 302.857 71.2322C302.372 71.7869 301.748 72.0642 300.985 72.0642C300.43 72.0642 299.633 71.8215 298.593 71.3362C297.622 70.7815 296.409 70.2615 294.953 69.7762C293.566 69.2909 291.868 69.0482 289.857 69.0482C287.569 69.0482 285.732 69.4642 284.345 70.2962C282.958 71.0589 281.953 71.9949 281.329 73.1042C280.705 74.1442 280.393 75.2189 280.393 76.3282C280.393 78.0615 280.982 79.4135 282.161 80.3842C283.409 81.3549 285.004 82.1522 286.945 82.7762C287.214 82.8503 287.483 82.9249 287.754 83.0002ZM313.52 90.0002V92.6562C313.52 96.1922 314.456 99.4855 316.328 102.536C318.2 105.587 320.696 108.083 323.816 110.024C326.936 111.896 330.334 112.832 334.008 112.832C337.683 112.832 341.08 111.896 344.2 110.024C347.32 108.083 349.816 105.587 351.688 102.536C353.63 99.4162 354.6 96.1229 354.6 92.6562V90.0002H345.968V92.6562C345.968 94.7362 345.414 96.7469 344.304 98.6882C343.195 100.56 341.739 102.086 339.936 103.264C338.203 104.443 336.227 105.032 334.008 105.032C331.79 105.032 329.779 104.443 327.976 103.264C326.174 102.086 324.752 100.56 323.712 98.6882C322.672 96.7469 322.152 94.7362 322.152 92.6562V90.0002H313.52ZM322.152 83.0002H313.52V82.0482C313.52 78.5122 314.422 75.2535 316.224 72.2722C318.096 69.2215 320.592 66.7602 323.712 64.8882C326.832 63.0162 330.264 62.0802 334.008 62.0802C337.683 62.0802 341.08 63.0162 344.2 64.8882C347.32 66.6909 349.816 69.0829 351.688 72.0642C353.63 75.0455 354.6 78.3735 354.6 82.0482V83.0002H345.968V82.0482C345.968 80.0375 345.414 78.0962 344.304 76.2242C343.264 74.3522 341.843 72.8269 340.04 71.6482C338.238 70.4695 336.227 69.8802 334.008 69.8802C331.79 69.8802 329.779 70.4695 327.976 71.6482C326.174 72.8269 324.752 74.3522 323.712 76.2242C322.672 78.0962 322.152 80.0375 322.152 82.0482V83.0002ZM364.955 90.0002V108.88C364.955 109.643 365.336 110.371 366.099 111.064C366.931 111.688 367.971 112 369.219 112C370.398 112 371.403 111.688 372.235 111.064C373.136 110.371 373.587 109.643 373.587 108.88V90.0002H364.955ZM373.587 83.0002H364.955V65.7202C364.955 64.8189 365.336 64.0909 366.099 63.5362C366.931 62.9815 367.971 62.7042 369.219 62.7042C370.328 62.7042 371.264 62.9815 372.027 63.5362C372.79 64.0909 373.171 64.8189 373.171 65.7202V69.9842C374.35 67.9735 376.083 66.1709 378.371 64.5762C380.659 62.9122 383.536 62.0802 387.003 62.0802C390.331 62.0802 393.243 63.0509 395.739 64.9922C398.235 66.9335 400.072 69.4295 401.251 72.4802C403.054 68.9442 405.376 66.3442 408.219 64.6802C411.062 62.9469 413.974 62.0802 416.955 62.0802C420.006 62.0802 422.883 62.8775 425.587 64.4722C428.36 65.9975 430.579 68.2509 432.243 71.2322C433.976 74.2135 434.843 77.8189 434.843 82.0482V83.0002H426.211V82.0482C426.211 79.4135 425.656 77.1949 424.547 75.3922C423.507 73.5895 422.12 72.2375 420.387 71.3362C418.723 70.3655 417.024 69.8802 415.291 69.8802C413.419 69.8802 411.651 70.3655 409.987 71.3362C408.323 72.3069 406.936 73.6589 405.827 75.3922C404.718 77.1255 404.163 79.2402 404.163 81.7362V83.0002H395.531V81.8402C395.531 79.4829 395.011 77.4029 393.971 75.6002C393 73.7975 391.683 72.4109 390.019 71.4402C388.424 70.4002 386.656 69.8802 384.715 69.8802C382.843 69.8802 381.04 70.3655 379.307 71.3362C377.643 72.3069 376.256 73.6935 375.147 75.4962C374.107 77.2295 373.587 79.4135 373.587 82.0482V83.0002ZM395.531 90.0002V108.984C395.531 110.024 395.982 110.787 396.883 111.272C397.854 111.758 398.824 112 399.795 112C400.904 112 401.91 111.758 402.811 111.272C403.712 110.787 404.163 110.024 404.163 108.984V90.0002H395.531ZM426.211 90.0002V108.88C426.211 109.643 426.627 110.371 427.459 111.064C428.291 111.688 429.296 112 430.475 112C431.654 112 432.659 111.688 433.491 111.064C434.392 110.371 434.843 109.643 434.843 108.88V90.0002H426.211ZM444.739 90.0002V92.6562C444.739 96.6775 445.744 100.214 447.755 103.264C449.766 106.246 452.504 108.603 455.971 110.336C459.438 112 463.424 112.832 467.931 112.832C471.259 112.832 474.136 112.416 476.563 111.584C479.059 110.683 480.966 109.678 482.283 108.568C483.6 107.39 484.259 106.35 484.259 105.448C484.259 104.963 484.12 104.408 483.843 103.784C483.566 103.16 483.15 102.64 482.595 102.224C482.11 101.739 481.486 101.496 480.723 101.496C479.96 101.496 479.094 101.843 478.123 102.536C477.152 103.16 475.904 103.819 474.379 104.512C472.854 105.206 470.808 105.552 468.243 105.552C463.875 105.552 460.304 104.443 457.531 102.224C454.758 99.9362 453.371 96.8509 453.371 92.9682V90.0002H444.739ZM476.5 89.847C477.935 89.8327 479.308 89.6944 480.619 89.4322C482.006 89.1549 483.15 88.4269 484.051 87.2482C484.952 86.0002 485.403 83.9895 485.403 81.2162C485.403 77.4722 484.467 74.1789 482.595 71.3362C480.792 68.4935 478.366 66.2402 475.315 64.5762C472.334 62.9122 469.04 62.0802 465.435 62.0802C461.691 62.0802 458.259 62.9815 455.139 64.7842C452.019 66.5869 449.488 68.9789 447.547 71.9602C445.675 74.9415 444.739 78.2002 444.739 81.7362V83.0002H453.371V80.2802C453.371 78.2002 453.926 76.2935 455.035 74.5602C456.144 72.8269 457.6 71.4749 459.403 70.5042C461.206 69.4642 463.182 68.9442 465.331 68.9442C467.619 68.9442 469.664 69.4989 471.467 70.6082C473.27 71.7175 474.656 73.1735 475.627 74.9762C476.667 76.7095 477.187 78.6162 477.187 80.6962C477.187 81.8249 476.958 82.6482 476.5 83.1662V89.847Z" fill="#BAA673"/>
</svg>
